<svg xmlns="http://www.w3.org/2000/svg" width="800" height="420" viewBox="0 0 800 420">
  <defs>
    <linearGradient id="bg" x1="0%" y1="0%" x2="100%" y2="100%">
      <stop offset="0%" style="stop-color:#0f172a"/>
      <stop offset="100%" style="stop-color:#1e293b"/>
    </linearGradient>
    <linearGradient id="accent" x1="0%" y1="0%" x2="100%" y2="0%">
      <stop offset="0%" style="stop-color:#ef4444"/>
      <stop offset="100%" style="stop-color:#f97316"/>
    </linearGradient>
    <linearGradient id="iconBg" x1="0%" y1="0%" x2="100%" y2="100%">
      <stop offset="0%" style="stop-color:#ef4444;stop-opacity:0.3"/>
      <stop offset="100%" style="stop-color:#f97316;stop-opacity:0.15"/>
    </linearGradient>
    <filter id="glow">
      <feGaussianBlur stdDeviation="12" result="coloredBlur"/>
      <feMerge><feMergeNode in="coloredBlur"/><feMergeNode in="SourceGraphic"/></feMerge>
    </filter>
  </defs>

  <!-- Background -->
  <rect width="800" height="420" fill="url(#bg)"/>

  <!-- Top accent line -->
  <rect x="0" y="0" width="800" height="3" fill="url(#accent)"/>

  <!-- Glow blob -->
  <ellipse cx="400" cy="200" rx="220" ry="140" fill="#ef4444" opacity="0.05" filter="url(#glow)"/>

  <!-- Grid dots pattern -->
  <circle cx="4" cy="30" r="1" fill="rgba(255,255,255,0.04)"/><circle cx="48" cy="30" r="1" fill="rgba(255,255,255,0.04)"/><circle cx="92" cy="30" r="1" fill="rgba(255,255,255,0.04)"/><circle cx="136" cy="30" r="1" fill="rgba(255,255,255,0.04)"/><circle cx="180" cy="30" r="1" fill="rgba(255,255,255,0.04)"/><circle cx="224" cy="30" r="1" fill="rgba(255,255,255,0.04)"/><circle cx="268" cy="30" r="1" fill="rgba(255,255,255,0.04)"/><circle cx="312" cy="30" r="1" fill="rgba(255,255,255,0.04)"/><circle cx="356" cy="30" r="1" fill="rgba(255,255,255,0.04)"/><circle cx="400" cy="30" r="1" fill="rgba(255,255,255,0.04)"/><circle cx="444" cy="30" r="1" fill="rgba(255,255,255,0.04)"/><circle cx="488" cy="30" r="1" fill="rgba(255,255,255,0.04)"/><circle cx="532" cy="30" r="1" fill="rgba(255,255,255,0.04)"/><circle cx="576" cy="30" r="1" fill="rgba(255,255,255,0.04)"/><circle cx="620" cy="30" r="1" fill="rgba(255,255,255,0.04)"/><circle cx="664" cy="30" r="1" fill="rgba(255,255,255,0.04)"/><circle cx="708" cy="30" r="1" fill="rgba(255,255,255,0.04)"/><circle cx="752" cy="30" r="1" fill="rgba(255,255,255,0.04)"/><circle cx="796" cy="30" r="1" fill="rgba(255,255,255,0.04)"/><circle cx="840" cy="30" r="1" fill="rgba(255,255,255,0.04)"/><circle cx="4" cy="85" r="1" fill="rgba(255,255,255,0.04)"/><circle cx="48" cy="85" r="1" fill="rgba(255,255,255,0.04)"/><circle cx="92" cy="85" r="1" fill="rgba(255,255,255,0.04)"/><circle cx="136" cy="85" r="1" fill="rgba(255,255,255,0.04)"/><circle cx="180" cy="85" r="1" fill="rgba(255,255,255,0.04)"/><circle cx="224" cy="85" r="1" fill="rgba(255,255,255,0.04)"/><circle cx="268" cy="85" r="1" fill="rgba(255,255,255,0.04)"/><circle cx="312" cy="85" r="1" fill="rgba(255,255,255,0.04)"/><circle cx="356" cy="85" r="1" fill="rgba(255,255,255,0.04)"/><circle cx="400" cy="85" r="1" fill="rgba(255,255,255,0.04)"/><circle cx="444" cy="85" r="1" fill="rgba(255,255,255,0.04)"/><circle cx="488" cy="85" r="1" fill="rgba(255,255,255,0.04)"/><circle cx="532" cy="85" r="1" fill="rgba(255,255,255,0.04)"/><circle cx="576" cy="85" r="1" fill="rgba(255,255,255,0.04)"/><circle cx="620" cy="85" r="1" fill="rgba(255,255,255,0.04)"/><circle cx="664" cy="85" r="1" fill="rgba(255,255,255,0.04)"/><circle cx="708" cy="85" r="1" fill="rgba(255,255,255,0.04)"/><circle cx="752" cy="85" r="1" fill="rgba(255,255,255,0.04)"/><circle cx="796" cy="85" r="1" fill="rgba(255,255,255,0.04)"/><circle cx="840" cy="85" r="1" fill="rgba(255,255,255,0.04)"/><circle cx="4" cy="140" r="1" fill="rgba(255,255,255,0.04)"/><circle cx="48" cy="140" r="1" fill="rgba(255,255,255,0.04)"/><circle cx="92" cy="140" r="1" fill="rgba(255,255,255,0.04)"/><circle cx="136" cy="140" r="1" fill="rgba(255,255,255,0.04)"/><circle cx="180" cy="140" r="1" fill="rgba(255,255,255,0.04)"/><circle cx="224" cy="140" r="1" fill="rgba(255,255,255,0.04)"/><circle cx="268" cy="140" r="1" fill="rgba(255,255,255,0.04)"/><circle cx="312" cy="140" r="1" fill="rgba(255,255,255,0.04)"/><circle cx="356" cy="140" r="1" fill="rgba(255,255,255,0.04)"/><circle cx="400" cy="140" r="1" fill="rgba(255,255,255,0.04)"/><circle cx="444" cy="140" r="1" fill="rgba(255,255,255,0.04)"/><circle cx="488" cy="140" r="1" fill="rgba(255,255,255,0.04)"/><circle cx="532" cy="140" r="1" fill="rgba(255,255,255,0.04)"/><circle cx="576" cy="140" r="1" fill="rgba(255,255,255,0.04)"/><circle cx="620" cy="140" r="1" fill="rgba(255,255,255,0.04)"/><circle cx="664" cy="140" r="1" fill="rgba(255,255,255,0.04)"/><circle cx="708" cy="140" r="1" fill="rgba(255,255,255,0.04)"/><circle cx="752" cy="140" r="1" fill="rgba(255,255,255,0.04)"/><circle cx="796" cy="140" r="1" fill="rgba(255,255,255,0.04)"/><circle cx="840" cy="140" r="1" fill="rgba(255,255,255,0.04)"/><circle cx="4" cy="195" r="1" fill="rgba(255,255,255,0.04)"/><circle cx="48" cy="195" r="1" fill="rgba(255,255,255,0.04)"/><circle cx="92" cy="195" r="1" fill="rgba(255,255,255,0.04)"/><circle cx="136" cy="195" r="1" fill="rgba(255,255,255,0.04)"/><circle cx="180" cy="195" r="1" fill="rgba(255,255,255,0.04)"/><circle cx="224" cy="195" r="1" fill="rgba(255,255,255,0.04)"/><circle cx="268" cy="195" r="1" fill="rgba(255,255,255,0.04)"/><circle cx="312" cy="195" r="1" fill="rgba(255,255,255,0.04)"/><circle cx="356" cy="195" r="1" fill="rgba(255,255,255,0.04)"/><circle cx="400" cy="195" r="1" fill="rgba(255,255,255,0.04)"/><circle cx="444" cy="195" r="1" fill="rgba(255,255,255,0.04)"/><circle cx="488" cy="195" r="1" fill="rgba(255,255,255,0.04)"/><circle cx="532" cy="195" r="1" fill="rgba(255,255,255,0.04)"/><circle cx="576" cy="195" r="1" fill="rgba(255,255,255,0.04)"/><circle cx="620" cy="195" r="1" fill="rgba(255,255,255,0.04)"/><circle cx="664" cy="195" r="1" fill="rgba(255,255,255,0.04)"/><circle cx="708" cy="195" r="1" fill="rgba(255,255,255,0.04)"/><circle cx="752" cy="195" r="1" fill="rgba(255,255,255,0.04)"/><circle cx="796" cy="195" r="1" fill="rgba(255,255,255,0.04)"/><circle cx="840" cy="195" r="1" fill="rgba(255,255,255,0.04)"/><circle cx="4" cy="250" r="1" fill="rgba(255,255,255,0.04)"/><circle cx="48" cy="250" r="1" fill="rgba(255,255,255,0.04)"/><circle cx="92" cy="250" r="1" fill="rgba(255,255,255,0.04)"/><circle cx="136" cy="250" r="1" fill="rgba(255,255,255,0.04)"/><circle cx="180" cy="250" r="1" fill="rgba(255,255,255,0.04)"/><circle cx="224" cy="250" r="1" fill="rgba(255,255,255,0.04)"/><circle cx="268" cy="250" r="1" fill="rgba(255,255,255,0.04)"/><circle cx="312" cy="250" r="1" fill="rgba(255,255,255,0.04)"/><circle cx="356" cy="250" r="1" fill="rgba(255,255,255,0.04)"/><circle cx="400" cy="250" r="1" fill="rgba(255,255,255,0.04)"/><circle cx="444" cy="250" r="1" fill="rgba(255,255,255,0.04)"/><circle cx="488" cy="250" r="1" fill="rgba(255,255,255,0.04)"/><circle cx="532" cy="250" r="1" fill="rgba(255,255,255,0.04)"/><circle cx="576" cy="250" r="1" fill="rgba(255,255,255,0.04)"/><circle cx="620" cy="250" r="1" fill="rgba(255,255,255,0.04)"/><circle cx="664" cy="250" r="1" fill="rgba(255,255,255,0.04)"/><circle cx="708" cy="250" r="1" fill="rgba(255,255,255,0.04)"/><circle cx="752" cy="250" r="1" fill="rgba(255,255,255,0.04)"/><circle cx="796" cy="250" r="1" fill="rgba(255,255,255,0.04)"/><circle cx="840" cy="250" r="1" fill="rgba(255,255,255,0.04)"/><circle cx="4" cy="305" r="1" fill="rgba(255,255,255,0.04)"/><circle cx="48" cy="305" r="1" fill="rgba(255,255,255,0.04)"/><circle cx="92" cy="305" r="1" fill="rgba(255,255,255,0.04)"/><circle cx="136" cy="305" r="1" fill="rgba(255,255,255,0.04)"/><circle cx="180" cy="305" r="1" fill="rgba(255,255,255,0.04)"/><circle cx="224" cy="305" r="1" fill="rgba(255,255,255,0.04)"/><circle cx="268" cy="305" r="1" fill="rgba(255,255,255,0.04)"/><circle cx="312" cy="305" r="1" fill="rgba(255,255,255,0.04)"/><circle cx="356" cy="305" r="1" fill="rgba(255,255,255,0.04)"/><circle cx="400" cy="305" r="1" fill="rgba(255,255,255,0.04)"/><circle cx="444" cy="305" r="1" fill="rgba(255,255,255,0.04)"/><circle cx="488" cy="305" r="1" fill="rgba(255,255,255,0.04)"/><circle cx="532" cy="305" r="1" fill="rgba(255,255,255,0.04)"/><circle cx="576" cy="305" r="1" fill="rgba(255,255,255,0.04)"/><circle cx="620" cy="305" r="1" fill="rgba(255,255,255,0.04)"/><circle cx="664" cy="305" r="1" fill="rgba(255,255,255,0.04)"/><circle cx="708" cy="305" r="1" fill="rgba(255,255,255,0.04)"/><circle cx="752" cy="305" r="1" fill="rgba(255,255,255,0.04)"/><circle cx="796" cy="305" r="1" fill="rgba(255,255,255,0.04)"/><circle cx="840" cy="305" r="1" fill="rgba(255,255,255,0.04)"/><circle cx="4" cy="360" r="1" fill="rgba(255,255,255,0.04)"/><circle cx="48" cy="360" r="1" fill="rgba(255,255,255,0.04)"/><circle cx="92" cy="360" r="1" fill="rgba(255,255,255,0.04)"/><circle cx="136" cy="360" r="1" fill="rgba(255,255,255,0.04)"/><circle cx="180" cy="360" r="1" fill="rgba(255,255,255,0.04)"/><circle cx="224" cy="360" r="1" fill="rgba(255,255,255,0.04)"/><circle cx="268" cy="360" r="1" fill="rgba(255,255,255,0.04)"/><circle cx="312" cy="360" r="1" fill="rgba(255,255,255,0.04)"/><circle cx="356" cy="360" r="1" fill="rgba(255,255,255,0.04)"/><circle cx="400" cy="360" r="1" fill="rgba(255,255,255,0.04)"/><circle cx="444" cy="360" r="1" fill="rgba(255,255,255,0.04)"/><circle cx="488" cy="360" r="1" fill="rgba(255,255,255,0.04)"/><circle cx="532" cy="360" r="1" fill="rgba(255,255,255,0.04)"/><circle cx="576" cy="360" r="1" fill="rgba(255,255,255,0.04)"/><circle cx="620" cy="360" r="1" fill="rgba(255,255,255,0.04)"/><circle cx="664" cy="360" r="1" fill="rgba(255,255,255,0.04)"/><circle cx="708" cy="360" r="1" fill="rgba(255,255,255,0.04)"/><circle cx="752" cy="360" r="1" fill="rgba(255,255,255,0.04)"/><circle cx="796" cy="360" r="1" fill="rgba(255,255,255,0.04)"/><circle cx="840" cy="360" r="1" fill="rgba(255,255,255,0.04)"/><circle cx="4" cy="415" r="1" fill="rgba(255,255,255,0.04)"/><circle cx="48" cy="415" r="1" fill="rgba(255,255,255,0.04)"/><circle cx="92" cy="415" r="1" fill="rgba(255,255,255,0.04)"/><circle cx="136" cy="415" r="1" fill="rgba(255,255,255,0.04)"/><circle cx="180" cy="415" r="1" fill="rgba(255,255,255,0.04)"/><circle cx="224" cy="415" r="1" fill="rgba(255,255,255,0.04)"/><circle cx="268" cy="415" r="1" fill="rgba(255,255,255,0.04)"/><circle cx="312" cy="415" r="1" fill="rgba(255,255,255,0.04)"/><circle cx="356" cy="415" r="1" fill="rgba(255,255,255,0.04)"/><circle cx="400" cy="415" r="1" fill="rgba(255,255,255,0.04)"/><circle cx="444" cy="415" r="1" fill="rgba(255,255,255,0.04)"/><circle cx="488" cy="415" r="1" fill="rgba(255,255,255,0.04)"/><circle cx="532" cy="415" r="1" fill="rgba(255,255,255,0.04)"/><circle cx="576" cy="415" r="1" fill="rgba(255,255,255,0.04)"/><circle cx="620" cy="415" r="1" fill="rgba(255,255,255,0.04)"/><circle cx="664" cy="415" r="1" fill="rgba(255,255,255,0.04)"/><circle cx="708" cy="415" r="1" fill="rgba(255,255,255,0.04)"/><circle cx="752" cy="415" r="1" fill="rgba(255,255,255,0.04)"/><circle cx="796" cy="415" r="1" fill="rgba(255,255,255,0.04)"/><circle cx="840" cy="415" r="1" fill="rgba(255,255,255,0.04)"/>

  <!-- Icon container -->
  <rect x="356" y="80" width="88" height="88" rx="20" fill="url(#iconBg)" stroke="#ef4444" stroke-width="1" stroke-opacity="0.4"/>
  <svg x="368" y="92" width="64" height="64" viewBox="0 0 24 24" color="#f97316">
    <circle cx="12" cy="12" r="3" stroke="currentColor" stroke-width="1.5" fill="none"/><path d="M12 1v4M12 19v4M4.22 4.22l2.83 2.83M16.95 16.95l2.83 2.83M1 12h4M19 12h4M4.22 19.78l2.83-2.83M16.95 7.05l2.83-2.83" stroke="currentColor" stroke-width="1.5" stroke-linecap="round"/>
  </svg>

  <!-- Badge -->
  <rect x="322" y="182" width="176" height="22" rx="11" fill="#ef4444" opacity="0.2" stroke="#ef4444" stroke-width="1" stroke-opacity="0.5"/>
  <text x="400" y="197" text-anchor="middle" font-family="monospace" font-size="11" font-weight="700" fill="#ef4444" letter-spacing="1">96% ACCURACY</text>

  <!-- Title -->
  <text x="400" y="245" text-anchor="middle" font-family="-apple-system,BlinkMacSystemFont,'Segoe UI',sans-serif" font-size="28" font-weight="800" fill="white">NNA — CNN Classifier</text>

  <!-- Subtitle -->
  <text x="400" y="275" text-anchor="middle" font-family="-apple-system,BlinkMacSystemFont,'Segoe UI',sans-serif" font-size="15" fill="rgba(255,255,255,0.45)">Red Neuronal Convolucional</text>

  <!-- Divider -->
  <line x1="320" y1="295" x2="480" y2="295" stroke="url(#accent)" stroke-width="1" stroke-opacity="0.4"/>

  <!-- Tech tags -->
  
      <rect x="228" y="310" width="80" height="26" rx="13" fill="rgba(255,255,255,0.07)" stroke="rgba(255,255,255,0.12)" stroke-width="1"/>
      <text x="268" y="327" text-anchor="middle" font-family="monospace" font-size="11" fill="rgba(255,255,255,0.55)">TensorFlow</text>
    
      <rect x="316" y="310" width="80" height="26" rx="13" fill="rgba(255,255,255,0.07)" stroke="rgba(255,255,255,0.12)" stroke-width="1"/>
      <text x="356" y="327" text-anchor="middle" font-family="monospace" font-size="11" fill="rgba(255,255,255,0.55)">Keras</text>
    
      <rect x="404" y="310" width="80" height="26" rx="13" fill="rgba(255,255,255,0.07)" stroke="rgba(255,255,255,0.12)" stroke-width="1"/>
      <text x="444" y="327" text-anchor="middle" font-family="monospace" font-size="11" fill="rgba(255,255,255,0.55)">Python</text>
    
      <rect x="492" y="310" width="80" height="26" rx="13" fill="rgba(255,255,255,0.07)" stroke="rgba(255,255,255,0.12)" stroke-width="1"/>
      <text x="532" y="327" text-anchor="middle" font-family="monospace" font-size="11" fill="rgba(255,255,255,0.55)">OpenCV</text>
    

  <!-- Bottom bar -->
  <rect x="0" y="395" width="800" height="25" fill="rgba(0,0,0,0.3)"/>
  <text x="400" y="411" text-anchor="middle" font-family="monospace" font-size="11" fill="rgba(255,255,255,0.2)" letter-spacing="2">jloncon.dev</text>
</svg>